<svg width="133" height="23" viewBox="0 0 133 23" fill="none" xmlns="http://www.w3.org/2000/svg">
<rect y="0.558624" width="133" height="22" rx="2" fill="#B1F2D0"/>
<path d="M29.01 15.0586H27.24L24.93 7.91862H26.54L28.13 12.9386H28.15L29.76 7.91862H31.38L29.01 15.0586ZM31.9888 7.91862H37.3288V9.23862H33.5588V10.7686H37.0188V11.9886H33.5588V13.7386H37.4088V15.0586H31.9888V7.91862ZM40.0432 11.1486H41.7632C42.1232 11.1486 42.3932 11.0686 42.5732 10.9086C42.7532 10.7486 42.8432 10.4886 42.8432 10.1286C42.8432 9.78196 42.7532 9.53196 42.5732 9.37862C42.3932 9.21862 42.1232 9.13862 41.7632 9.13862H40.0432V11.1486ZM38.4732 7.91862H42.3232C42.6432 7.91862 42.9299 7.97196 43.1832 8.07862C43.4432 8.17862 43.6632 8.31862 43.8432 8.49862C44.0299 8.67862 44.1699 8.88862 44.2632 9.12862C44.3632 9.36196 44.4132 9.61529 44.4132 9.88862C44.4132 10.3086 44.3232 10.672 44.1432 10.9786C43.9699 11.2853 43.6832 11.5186 43.2832 11.6786V11.6986C43.4765 11.752 43.6365 11.8353 43.7632 11.9486C43.8899 12.0553 43.9932 12.1853 44.0732 12.3386C44.1532 12.4853 44.2099 12.6486 44.2432 12.8286C44.2832 13.0086 44.3099 13.1886 44.3232 13.3686C44.3299 13.482 44.3365 13.6153 44.3432 13.7686C44.3499 13.922 44.3599 14.0786 44.3732 14.2386C44.3932 14.3986 44.4199 14.552 44.4532 14.6986C44.4932 14.8386 44.5499 14.9586 44.6232 15.0586H43.0532C42.9665 14.832 42.9132 14.562 42.8932 14.2486C42.8732 13.9353 42.8432 13.6353 42.8032 13.3486C42.7499 12.9753 42.6365 12.702 42.4632 12.5286C42.2899 12.3553 42.0065 12.2686 41.6132 12.2686H40.0432V15.0586H38.4732V7.91862ZM45.69 7.91862H47.26V15.0586H45.69V7.91862ZM48.6392 7.91862H53.6592V9.23862H50.2092V10.8886H53.1992V12.1086H50.2092V15.0586H48.6392V7.91862ZM54.567 7.91862H56.137V15.0586H54.567V7.91862ZM57.5162 7.91862H62.8562V9.23862H59.0862V10.7686H62.5462V11.9886H59.0862V13.7386H62.9362V15.0586H57.5162V7.91862ZM65.5705 13.7386H66.9705C67.1972 13.7386 67.4172 13.702 67.6305 13.6286C67.8439 13.5553 68.0339 13.4353 68.2005 13.2686C68.3672 13.0953 68.5005 12.872 68.6005 12.5986C68.7005 12.3253 68.7505 11.992 68.7505 11.5986C68.7505 11.2386 68.7139 10.9153 68.6405 10.6286C68.5739 10.3353 68.4605 10.0853 68.3005 9.87862C68.1405 9.67196 67.9272 9.51529 67.6605 9.40862C67.4005 9.29529 67.0772 9.23862 66.6905 9.23862H65.5705V13.7386ZM64.0005 7.91862H67.0805C67.5405 7.91862 67.9672 7.99196 68.3605 8.13862C68.7605 8.28529 69.1039 8.50529 69.3905 8.79862C69.6839 9.09196 69.9105 9.45862 70.0705 9.89862C70.2372 10.3386 70.3205 10.8553 70.3205 11.4486C70.3205 11.9686 70.2539 12.4486 70.1205 12.8886C69.9872 13.3286 69.7839 13.7086 69.5105 14.0286C69.2439 14.3486 68.9072 14.602 68.5005 14.7886C68.1005 14.9686 67.6272 15.0586 67.0805 15.0586H64.0005V7.91862ZM78.9559 10.3186C78.9292 10.1386 78.8692 9.97529 78.7759 9.82862C78.6825 9.67529 78.5659 9.54196 78.4259 9.42862C78.2859 9.31529 78.1259 9.22862 77.9459 9.16862C77.7725 9.10196 77.5892 9.06862 77.3959 9.06862C77.0425 9.06862 76.7425 9.13862 76.4959 9.27862C76.2492 9.41196 76.0492 9.59529 75.8959 9.82862C75.7425 10.0553 75.6292 10.3153 75.5559 10.6086C75.4892 10.902 75.4559 11.2053 75.4559 11.5186C75.4559 11.8186 75.4892 12.112 75.5559 12.3986C75.6292 12.6786 75.7425 12.932 75.8959 13.1586C76.0492 13.3853 76.2492 13.5686 76.4959 13.7086C76.7425 13.842 77.0425 13.9086 77.3959 13.9086C77.8759 13.9086 78.2492 13.762 78.5159 13.4686C78.7892 13.1753 78.9559 12.7886 79.0159 12.3086H80.5359C80.4959 12.7553 80.3925 13.1586 80.2259 13.5186C80.0592 13.8786 79.8392 14.1853 79.5659 14.4386C79.2925 14.692 78.9725 14.8853 78.6059 15.0186C78.2392 15.152 77.8359 15.2186 77.3959 15.2186C76.8492 15.2186 76.3559 15.1253 75.9159 14.9386C75.4825 14.7453 75.1159 14.482 74.8159 14.1486C74.5159 13.8153 74.2859 13.4253 74.1259 12.9786C73.9659 12.5253 73.8859 12.0386 73.8859 11.5186C73.8859 10.9853 73.9659 10.492 74.1259 10.0386C74.2859 9.57862 74.5159 9.17862 74.8159 8.83862C75.1159 8.49862 75.4825 8.23196 75.9159 8.03862C76.3559 7.84529 76.8492 7.74862 77.3959 7.74862C77.7892 7.74862 78.1592 7.80529 78.5059 7.91862C78.8592 8.03196 79.1725 8.19862 79.4459 8.41862C79.7259 8.63196 79.9559 8.89862 80.1359 9.21862C80.3159 9.53862 80.4292 9.90529 80.4759 10.3186H78.9559ZM82.868 11.5186C82.868 11.8186 82.9013 12.112 82.968 12.3986C83.0413 12.6786 83.1546 12.932 83.308 13.1586C83.4613 13.3853 83.6613 13.5686 83.908 13.7086C84.1546 13.842 84.4546 13.9086 84.808 13.9086C85.1613 13.9086 85.4613 13.842 85.708 13.7086C85.9546 13.5686 86.1546 13.3853 86.308 13.1586C86.4613 12.932 86.5713 12.6786 86.638 12.3986C86.7113 12.112 86.748 11.8186 86.748 11.5186C86.748 11.2053 86.7113 10.902 86.638 10.6086C86.5713 10.3153 86.4613 10.0553 86.308 9.82862C86.1546 9.59529 85.9546 9.41196 85.708 9.27862C85.4613 9.13862 85.1613 9.06862 84.808 9.06862C84.4546 9.06862 84.1546 9.13862 83.908 9.27862C83.6613 9.41196 83.4613 9.59529 83.308 9.82862C83.1546 10.0553 83.0413 10.3153 82.968 10.6086C82.9013 10.902 82.868 11.2053 82.868 11.5186ZM81.298 11.5186C81.298 10.9853 81.378 10.492 81.538 10.0386C81.698 9.57862 81.928 9.17862 82.228 8.83862C82.528 8.49862 82.8946 8.23196 83.328 8.03862C83.768 7.84529 84.2613 7.74862 84.808 7.74862C85.3613 7.74862 85.8546 7.84529 86.288 8.03862C86.7213 8.23196 87.088 8.49862 87.388 8.83862C87.688 9.17862 87.918 9.57862 88.078 10.0386C88.238 10.492 88.318 10.9853 88.318 11.5186C88.318 12.0386 88.238 12.5253 88.078 12.9786C87.918 13.4253 87.688 13.8153 87.388 14.1486C87.088 14.482 86.7213 14.7453 86.288 14.9386C85.8546 15.1253 85.3613 15.2186 84.808 15.2186C84.2613 15.2186 83.768 15.1253 83.328 14.9386C82.8946 14.7453 82.528 14.482 82.228 14.1486C81.928 13.8153 81.698 13.4253 81.538 12.9786C81.378 12.5253 81.298 12.0386 81.298 11.5186ZM89.3912 7.91862H91.6012L93.2712 12.8286H93.2912L94.8712 7.91862H97.0812V15.0586H95.6112V9.99862H95.5912L93.8412 15.0586H92.6312L90.8812 10.0486H90.8612V15.0586H89.3912V7.91862ZM100.033 11.2786H101.253C101.433 11.2786 101.607 11.2653 101.773 11.2386C101.94 11.212 102.087 11.162 102.213 11.0886C102.34 11.0086 102.44 10.8986 102.513 10.7586C102.593 10.6186 102.633 10.4353 102.633 10.2086C102.633 9.98196 102.593 9.79862 102.513 9.65862C102.44 9.51862 102.34 9.41196 102.213 9.33862C102.087 9.25862 101.94 9.20529 101.773 9.17862C101.607 9.15196 101.433 9.13862 101.253 9.13862H100.033V11.2786ZM98.4634 7.91862H101.683C102.13 7.91862 102.51 7.98529 102.823 8.11862C103.137 8.24529 103.39 8.41529 103.583 8.62862C103.783 8.84196 103.927 9.08529 104.013 9.35862C104.107 9.63196 104.153 9.91529 104.153 10.2086C104.153 10.4953 104.107 10.7786 104.013 11.0586C103.927 11.332 103.783 11.5753 103.583 11.7886C103.39 12.002 103.137 12.1753 102.823 12.3086C102.51 12.4353 102.13 12.4986 101.683 12.4986H100.033V15.0586H98.4634V7.91862ZM106.191 12.2986H108.041L107.141 9.67862H107.121L106.191 12.2986ZM106.341 7.91862H107.951L110.621 15.0586H108.991L108.451 13.4686H105.781L105.221 15.0586H103.641L106.341 7.91862ZM111.237 7.91862H112.797L115.777 12.7086H115.797V7.91862H117.267V15.0586H115.697L112.727 10.2786H112.707V15.0586H111.237V7.91862ZM120.499 12.2786L117.879 7.91862H119.639L121.309 10.7386L122.969 7.91862H124.719L122.069 12.3186V15.0586H120.499V12.2786Z" fill="#1C1C1C"/>
<path d="M8 7.85941C8 7.46158 8.15804 7.08005 8.43934 6.79875C8.72064 6.51744 9.10218 6.35941 9.5 6.35941H17C17.3978 6.35941 17.7794 6.51744 18.0607 6.79875C18.342 7.08005 18.5 7.46158 18.5 7.85941V13.8512C18.5 14.1566 18.4068 14.4547 18.2329 14.7057C18.0589 14.9568 17.8125 15.1487 17.5265 15.2559L13.7765 16.6622C13.4367 16.7897 13.0633 16.7897 12.7235 16.6622L8.9735 15.2559C8.68752 15.1487 8.44108 14.9568 8.26711 14.7057C8.09315 14.4547 7.99996 14.1566 8 13.8512V7.85941Z" fill="#107946"/>
<path d="M15.9638 10.1995C16.0248 10.1386 16.0733 10.0663 16.1064 9.98669C16.1395 9.90709 16.1567 9.82174 16.1568 9.73552C16.1569 9.6493 16.1401 9.5639 16.1072 9.48419C16.0744 9.40448 16.0261 9.33203 15.9653 9.27096C15.9044 9.2099 15.8321 9.16142 15.7525 9.12829C15.6729 9.09517 15.5875 9.07805 15.5013 9.07791C15.4151 9.07777 15.3297 9.09462 15.25 9.12748C15.1703 9.16035 15.0978 9.20859 15.0368 9.26946L12.5228 11.7745L11.4953 10.5947C11.3809 10.4634 11.219 10.383 11.0453 10.371C10.8716 10.359 10.7003 10.4166 10.569 10.531C10.4377 10.6453 10.3573 10.8072 10.3453 10.9809C10.3333 11.1546 10.3909 11.3259 10.5053 11.4572L11.8313 12.9797C11.862 13.015 11.8958 13.0465 11.9325 13.0735C11.9843 13.158 12.0545 13.2298 12.138 13.2833C12.2214 13.3368 12.3159 13.3707 12.4144 13.3825C12.5128 13.3943 12.6127 13.3836 12.7064 13.3512C12.8001 13.3189 12.8853 13.2657 12.9555 13.1957L15.9638 10.1995Z" fill="white"/>
</svg>
