<svg width="101" height="25" viewBox="0 0 101 25" fill="none" xmlns="http://www.w3.org/2000/svg">
<g clip-path="url(#clip0_3912_4370)">
<path d="M26.5088 9H36.6342V10.8891H32.6529V21.5088H30.4636V10.8891H26.5V9H26.5088ZM36.2016 12.4516H38.0731V14.1995H38.1084C38.1702 13.9523 38.285 13.714 38.4527 13.4845C38.6204 13.2549 38.8234 13.0343 39.0618 12.8489C39.3001 12.6547 39.565 12.5046 39.8563 12.381C40.1476 12.2662 40.4477 12.2044 40.7479 12.2044C40.9774 12.2044 41.1451 12.2133 41.2334 12.2221C41.3217 12.2309 41.41 12.2486 41.5071 12.2574V14.1819C41.3658 14.1554 41.2246 14.1377 41.0745 14.1201C40.9244 14.1024 40.7832 14.0936 40.6419 14.0936C40.3065 14.0936 39.9887 14.1642 39.6886 14.2966C39.3884 14.429 39.1324 14.6321 38.9117 14.8881C38.691 15.1529 38.5145 15.4707 38.3821 15.8591C38.2496 16.2475 38.1878 16.6889 38.1878 17.1921V21.5H36.1928V12.4516H36.2016ZM50.679 21.5088H48.7193V20.2465H48.684C48.4368 20.7055 48.0749 21.0674 47.5893 21.3411C47.1038 21.6148 46.6095 21.756 46.1063 21.756C44.9145 21.756 44.0494 21.4647 43.5198 20.8732C42.9901 20.2818 42.7253 19.3902 42.7253 18.1984V12.4516H44.7203V18.0042C44.7203 18.7987 44.8704 19.3637 45.1794 19.6903C45.4795 20.0169 45.9121 20.1847 46.4594 20.1847C46.8831 20.1847 47.2274 20.1229 47.5099 19.9905C47.7924 19.8581 48.0219 19.6903 48.1896 19.4696C48.3662 19.2578 48.4898 18.9929 48.5692 18.6928C48.6486 18.3927 48.684 18.066 48.684 17.7129V12.4605H50.679V21.5088ZM54.0777 18.6045C54.1395 19.1871 54.3602 19.5932 54.7398 19.8316C55.1282 20.0611 55.5872 20.1847 56.1257 20.1847C56.3111 20.1847 56.5229 20.167 56.7613 20.1405C56.9996 20.1141 57.2292 20.0523 57.4322 19.9728C57.6441 19.8934 57.8118 19.7698 57.953 19.6109C58.0854 19.452 58.1472 19.2489 58.1384 18.9929C58.1296 18.7369 58.0325 18.5251 57.8559 18.3662C57.6794 18.1984 57.4587 18.0749 57.185 17.9689C56.9114 17.8718 56.6024 17.7835 56.2493 17.7129C55.8962 17.6423 55.5431 17.5629 55.1811 17.4834C54.8104 17.404 54.4484 17.298 54.1042 17.1833C53.7599 17.0685 53.4509 16.9096 53.1772 16.7066C52.9036 16.5124 52.6829 16.2564 52.524 15.9474C52.3563 15.6384 52.2768 15.2588 52.2768 14.7998C52.2768 14.3054 52.4004 13.8994 52.6388 13.5639C52.8771 13.2285 53.1861 12.9636 53.548 12.7606C53.9188 12.5576 54.3249 12.4163 54.7751 12.328C55.2253 12.2486 55.6578 12.2044 56.0639 12.2044C56.5318 12.2044 56.982 12.2574 57.4057 12.3545C57.8294 12.4516 58.2179 12.6105 58.5621 12.84C58.9064 13.0607 59.1889 13.352 59.4184 13.7052C59.6479 14.0583 59.7892 14.4908 59.851 14.994H57.7676C57.6705 14.5173 57.4587 14.1907 57.1144 14.0318C56.7701 13.8641 56.3729 13.7846 55.9315 13.7846C55.7902 13.7846 55.6225 13.7934 55.4283 13.8199C55.2341 13.8464 55.0575 13.8905 54.881 13.9523C54.7133 14.0141 54.572 14.1112 54.4484 14.2348C54.3337 14.3584 54.2719 14.5173 54.2719 14.7203C54.2719 14.9675 54.3602 15.1617 54.5279 15.3118C54.6956 15.4619 54.9163 15.5855 55.19 15.6914C55.4636 15.7885 55.7726 15.8768 56.1257 15.9474C56.4788 16.018 56.8407 16.0975 57.2115 16.1769C57.5734 16.2564 57.9265 16.3623 58.2796 16.477C58.6328 16.5918 58.9417 16.7507 59.2154 16.9537C59.489 17.1568 59.7097 17.404 59.8775 17.7041C60.0452 18.0042 60.1335 18.3838 60.1335 18.8252C60.1335 19.3637 60.0099 19.8139 59.7627 20.1935C59.5155 20.5643 59.1977 20.8732 58.8093 21.1028C58.4209 21.3323 57.9795 21.5088 57.5028 21.6148C57.0261 21.7207 56.5494 21.7737 56.0816 21.7737C55.5078 21.7737 54.9781 21.7119 54.4926 21.5794C54.0071 21.447 53.5833 21.2528 53.2302 20.9968C52.8771 20.732 52.5946 20.4054 52.3916 20.0169C52.1886 19.6285 52.0826 19.1607 52.065 18.6222H54.0777V18.6045ZM60.6631 12.4516H62.1727V9.7327H64.1677V12.4516H65.9686V13.9435H64.1677V18.7811C64.1677 18.9929 64.1765 19.1695 64.1942 19.3284C64.2118 19.4785 64.256 19.6109 64.3178 19.7168C64.3796 19.8227 64.4767 19.9022 64.6091 19.9552C64.7415 20.0081 64.9092 20.0346 65.1388 20.0346C65.28 20.0346 65.4212 20.0346 65.5625 20.0258C65.7037 20.0169 65.845 19.9993 65.9862 19.964V21.5088C65.7655 21.5353 65.5448 21.553 65.3418 21.5794C65.1299 21.6059 64.9181 21.6148 64.6974 21.6148C64.1677 21.6148 63.744 21.5618 63.4262 21.4647C63.1084 21.3676 62.8524 21.2175 62.6758 21.0233C62.4905 20.8291 62.3757 20.5907 62.3051 20.2994C62.2433 20.0081 62.1991 19.6727 62.1903 19.3019V13.9612H60.6808V12.4516H60.6631ZM67.381 12.4516H69.2701V13.6787H69.3054C69.5879 13.149 69.9763 12.7782 70.4795 12.5487C70.9827 12.3192 71.5212 12.2044 72.1126 12.2044C72.8277 12.2044 73.4456 12.328 73.9753 12.584C74.5049 12.8312 74.9463 13.1755 75.2994 13.6169C75.6525 14.0583 75.9085 14.5703 76.0851 15.1529C76.2616 15.7355 76.3499 16.3623 76.3499 17.0244C76.3499 17.6335 76.2705 18.2249 76.1116 18.7899C75.9527 19.3637 75.7143 19.8669 75.3965 20.3083C75.0787 20.7496 74.6727 21.0939 74.1783 21.3588C73.684 21.6236 73.1102 21.756 72.4393 21.756C72.1479 21.756 71.8566 21.7295 71.5653 21.6766C71.274 21.6236 70.9915 21.5353 70.7267 21.4206C70.4618 21.3058 70.2058 21.1557 69.9852 20.9703C69.7556 20.785 69.5703 20.5731 69.4114 20.3347H69.376V24.8545H67.381V12.4516ZM74.3549 16.9891C74.3549 16.583 74.3019 16.1857 74.196 15.7973C74.09 15.4089 73.9311 15.0734 73.7193 14.7733C73.5074 14.4732 73.2426 14.2348 72.9336 14.0583C72.6158 13.8817 72.2539 13.7846 71.8478 13.7846C71.0092 13.7846 70.3736 14.0759 69.9498 14.6585C69.5261 15.2412 69.3143 16.018 69.3143 16.9891C69.3143 17.4481 69.3672 17.8718 69.482 18.2602C69.5967 18.6487 69.7556 18.9841 69.9852 19.2666C70.2058 19.5491 70.4707 19.7698 70.7796 19.9287C71.0886 20.0964 71.4506 20.1758 71.8566 20.1758C72.3157 20.1758 72.6953 20.0787 73.0131 19.8934C73.3308 19.708 73.5868 19.4608 73.7899 19.1695C73.9929 18.8694 74.143 18.5339 74.2313 18.1543C74.3107 17.7747 74.3549 17.3863 74.3549 16.9891ZM77.8771 9H79.8722V10.8891H77.8771V9ZM77.8771 12.4516H79.8722V21.5088H77.8771V12.4516ZM81.6554 9H83.6504V21.5088H81.6554V9ZM89.768 21.756C89.0441 21.756 88.3997 21.6324 87.8347 21.3941C87.2698 21.1557 86.7931 20.8203 86.3958 20.4054C86.0074 19.9816 85.7073 19.4785 85.5042 18.8958C85.3012 18.3132 85.1953 17.6688 85.1953 16.9714C85.1953 16.2828 85.3012 15.6472 85.5042 15.0646C85.7073 14.482 86.0074 13.9788 86.3958 13.5551C86.7842 13.1314 87.2698 12.8047 87.8347 12.5664C88.3997 12.328 89.0441 12.2044 89.768 12.2044C90.4919 12.2044 91.1363 12.328 91.7012 12.5664C92.2662 12.8047 92.7429 13.1402 93.1402 13.5551C93.5286 13.9788 93.8287 14.482 94.0318 15.0646C94.2348 15.6472 94.3407 16.2828 94.3407 16.9714C94.3407 17.6688 94.2348 18.3132 94.0318 18.8958C93.8287 19.4785 93.5286 19.9816 93.1402 20.4054C92.7517 20.8291 92.2662 21.1557 91.7012 21.3941C91.1363 21.6324 90.4919 21.756 89.768 21.756ZM89.768 20.1758C90.2094 20.1758 90.5978 20.0787 90.9244 19.8934C91.251 19.708 91.5159 19.4608 91.7277 19.1607C91.9396 18.8605 92.0897 18.5162 92.1956 18.1367C92.2927 17.7571 92.3457 17.3686 92.3457 16.9714C92.3457 16.583 92.2927 16.2034 92.1956 15.815C92.0985 15.4266 91.9396 15.0911 91.7277 14.791C91.5159 14.4908 91.251 14.2525 90.9244 14.0671C90.5978 13.8817 90.2094 13.7846 89.768 13.7846C89.3266 13.7846 88.9382 13.8817 88.6116 14.0671C88.2849 14.2525 88.0201 14.4996 87.8082 14.791C87.5964 15.0911 87.4463 15.4266 87.3404 15.815C87.2433 16.2034 87.1903 16.583 87.1903 16.9714C87.1903 17.3686 87.2433 17.7571 87.3404 18.1367C87.4375 18.5162 87.5964 18.8605 87.8082 19.1607C88.0201 19.4608 88.2849 19.708 88.6116 19.8934C88.9382 20.0876 89.3266 20.1758 89.768 20.1758ZM94.9234 12.4516H96.4329V9.7327H98.4279V12.4516H100.229V13.9435H98.4279V18.7811C98.4279 18.9929 98.4368 19.1695 98.4544 19.3284C98.4721 19.4785 98.5162 19.6109 98.578 19.7168C98.6398 19.8227 98.7369 19.9022 98.8693 19.9552C99.0017 20.0081 99.1695 20.0346 99.399 20.0346C99.5402 20.0346 99.6815 20.0346 99.8227 20.0258C99.964 20.0169 100.105 19.9993 100.246 19.964V21.5088C100.026 21.5353 99.8051 21.553 99.602 21.5794C99.3902 21.6059 99.1783 21.6148 98.9576 21.6148C98.4279 21.6148 98.0042 21.5618 97.6864 21.4647C97.3686 21.3676 97.1126 21.2175 96.9361 21.0233C96.7507 20.8291 96.6359 20.5907 96.5653 20.2994C96.5035 20.0081 96.4594 19.6727 96.4505 19.3019V13.9612H94.941V12.4516H94.9234Z" fill="black"/>
<path d="M24.4495 8.7041H15.304L12.4792 0L9.64548 8.7041L0.5 8.69527L7.90643 14.0802L5.07274 22.7754L12.4792 17.3994L19.8768 22.7754L17.0519 14.0802L24.4495 8.7041Z" fill="#00B67A"/>
<path d="M17.6888 16.0487L17.0532 14.0801L12.4805 17.3993L17.6888 16.0487Z" fill="black"/>
</g>
<defs>
<clipPath id="clip0_3912_4370">
<rect width="100" height="24.5586" fill="white" transform="translate(0.5)"/>
</clipPath>
</defs>
</svg>
